M48
; DRILL file {KiCad 8.0.5} date 2024-11-25T03:06:03-0500
; FORMAT={-:-/ absolute / inch / decimal}
; #@! TF.CreationDate,2024-11-25T03:06:03-05:00
; #@! TF.GenerationSoftware,Kicad,Pcbnew,8.0.5
; #@! TF.FileFunction,Plated,1,4,PTH
FMAT,2
INCH
; #@! TA.AperFunction,Plated,PTH,ViaDrill
T1C0.0118
; #@! TA.AperFunction,Plated,PTH,ComponentDrill
T2C0.0197
; #@! TA.AperFunction,Plated,PTH,ComponentDrill
T3C0.0236
; #@! TA.AperFunction,Plated,PTH,ComponentDrill
T4C0.0276
; #@! TA.AperFunction,Plated,PTH,ComponentDrill
T5C0.0394
; #@! TA.AperFunction,Plated,PTH,ComponentDrill
T6C0.0472
; #@! TA.AperFunction,Plated,PTH,ComponentDrill
T7C0.1063
; #@! TA.AperFunction,Plated,PTH,ComponentDrill
T8C0.1260
%
G90
G05
T1
X0.8338Y-1.4098
X0.8338Y-1.8098
X0.8338Y-2.1098
X0.8338Y-2.4098
X0.8338Y-3.7098
X0.8338Y-4.0098
X0.8338Y-4.3098
X0.8338Y-4.6098
X0.9338Y-2.9098
X0.9338Y-3.2098
X1.01Y-2.46
X1.01Y-2.67
X1.01Y-2.96
X1.015Y-2.175
X1.0338Y-1.2098
X1.0338Y-1.9098
X1.0338Y-3.4098
X1.0338Y-3.8098
X1.0338Y-4.7098
X1.1338Y-1.4098
X1.1338Y-4.9098
X1.15Y-2.62
X1.155Y-2.115
X1.2338Y-2.0098
X1.2338Y-3.0098
X1.2338Y-3.3098
X1.29Y-2.43
X1.29Y-2.92
X1.33Y-1.82
X1.3338Y-1.2098
X1.3338Y-4.1098
X1.3338Y-4.4098
X1.3338Y-4.7098
X1.34Y-2.28
X1.34Y-2.31
X1.34Y-2.34
X1.34Y-2.78
X1.34Y-2.81
X1.34Y-2.84
X1.37Y-2.28
X1.37Y-2.31
X1.37Y-2.34
X1.37Y-2.78
X1.37Y-2.81
X1.37Y-2.84
X1.37Y-2.87
X1.4156Y-1.7165
X1.4338Y-4.9098
X1.46Y-1.455
X1.4856Y-1.6929
X1.51Y-2.26
X1.51Y-2.29
X1.51Y-2.74
X1.51Y-2.77
X1.5338Y-1.3098
X1.5338Y-1.6098
X1.5338Y-1.9098
X1.5338Y-3.0098
X1.5338Y-3.3098
X1.5338Y-3.6098
X1.5338Y-3.9098
X1.5338Y-4.2098
X1.5338Y-4.5098
X1.6Y-2.17
X1.6Y-2.65
X1.63Y-2.17
X1.63Y-2.65
X1.6338Y-4.7098
X1.66Y-1.455
X1.68Y-1.85
X1.68Y-1.98
X1.69Y-1.88
X1.7Y-1.78
X1.7Y-1.91
X1.7Y-2.02
X1.7338Y-1.2098
X1.7338Y-3.1098
X1.7338Y-3.4098
X1.7338Y-3.7098
X1.7338Y-4.0098
X1.7338Y-4.3098
X1.7338Y-4.9098
X1.74Y-1.59
X1.74Y-2.1
X1.74Y-2.13
X1.75Y-2.58
X1.75Y-2.61
X1.77Y-2.1
X1.77Y-2.13
X1.78Y-2.58
X1.78Y-2.61
X1.8Y-2.1
X1.8Y-2.13
X1.81Y-1.87
X1.81Y-2.02
X1.81Y-2.58
X1.81Y-2.61
X1.8338Y-4.5098
X1.89Y-1.74
X1.89Y-1.88
X1.9095Y-2.49
X1.92Y-2.97
X1.93Y-2.32
X1.93Y-2.35
X1.93Y-2.38
X1.93Y-2.8
X1.93Y-2.83
X1.93Y-2.86
X1.93Y-2.89
X1.93Y-2.92
X1.9338Y-1.3098
X1.9338Y-2.1098
X1.9338Y-3.6098
X1.9338Y-3.9098
X1.9338Y-4.2098
X1.9338Y-4.7098
X1.9432Y-1.6768
X1.96Y-2.32
X1.96Y-2.35
X1.96Y-2.38
X1.9668Y-1.6532
X1.97Y-1.48
X2.0338Y-1.5098
X2.0338Y-4.4098
X2.0338Y-4.9098
X2.1338Y-1.2098
X2.1338Y-4.0098
X2.1338Y-4.6098
X2.2Y-2.95
X2.21Y-1.91
X2.21Y-2.75
X2.22Y-1.32
X2.22Y-2.19
X2.23Y-1.6
X2.23Y-2.47
X2.2338Y-1.7098
X2.2338Y-2.3098
X2.2338Y-2.8098
X2.2338Y-3.1098
X2.2338Y-4.2098
X2.2338Y-4.8098
X2.25Y-2.99
X2.3338Y-4.4098
X2.34Y-2.73
X2.344Y-2.1762
X2.345Y-1.58
X2.36Y-4.07
X2.39Y-2.84
X2.4Y-1.69
X2.4Y-2.25
X2.4338Y-1.2098
X2.4338Y-2.4098
X2.4338Y-2.9098
X2.4338Y-3.2098
X2.4338Y-3.7098
X2.4338Y-4.6098
X2.4338Y-4.9098
X2.4361Y-2.678
X2.4383Y-1.5263
X2.439Y-2.1206
X2.52Y-1.71
X2.52Y-2.3
X2.5338Y-1.4098
X2.5338Y-1.9098
X2.5338Y-4.3098
X2.57Y-2.82
X2.6338Y-1.7098
X2.6338Y-2.3098
X2.6338Y-2.7098
X2.6338Y-3.0098
X2.6338Y-3.3098
X2.6338Y-3.8098
X2.6338Y-4.5098
X2.6338Y-4.8098
X2.68Y-2.79
X2.69Y-1.63
X2.69Y-2.23
X2.7338Y-1.2098
X2.7338Y-2.0098
X2.7338Y-2.5098
X2.8338Y-1.4098
X2.8338Y-2.9098
X2.8338Y-3.2098
X2.8338Y-3.7098
X2.8338Y-4.1098
X2.8338Y-4.6098
X2.8338Y-4.9098
X2.86Y-1.63
X2.86Y-2.23
X2.91Y-1.47
X2.91Y-1.51
X2.91Y-2.07
X2.91Y-2.11
X2.915Y-2.565
X2.915Y-2.595
X2.92Y-2.73
X2.9338Y-1.7098
X2.9338Y-2.2098
X2.9338Y-3.9098
X2.94Y-1.47
X2.94Y-1.51
X2.94Y-2.07
X2.94Y-2.11
X2.95Y-2.565
X2.95Y-2.595
X3.03Y-2.225
X3.0338Y-1.2098
X3.0338Y-1.9098
X3.0338Y-2.5098
X3.0338Y-2.8098
X3.0338Y-3.1098
X3.0338Y-4.2098
X3.0338Y-4.7098
X3.055Y-2.195
X3.1338Y-1.4098
X3.1338Y-4.9098
X3.15Y-4.07
X3.165Y-1.24
X3.205Y-1.8
X3.205Y-1.83
X3.205Y-1.865
X3.22Y-2.255
X3.23Y-2.535
X3.2338Y-2.9098
X3.2338Y-3.3098
X3.2338Y-3.7098
X3.2338Y-4.0098
X3.2338Y-4.3098
X3.2338Y-4.6098
X3.235Y-1.8
X3.235Y-1.83
X3.235Y-1.865
X3.265Y-1.24
X3.285Y-2.51
X3.3338Y-1.3098
X3.3338Y-4.8098
X3.34Y-2.6049
X3.34Y-2.74
X3.3406Y-2.6547
X3.3406Y-2.6947
X3.3414Y-2.4
X3.345Y-2.255
X3.36Y-2.37
X3.36Y-2.77
X3.365Y-1.24
X3.3772Y-2.2572
X3.4Y-2.81
X3.4316Y-2.81
X3.4338Y-3.1098
X3.4338Y-3.8098
X3.4338Y-4.1098
X3.44Y-1.805
X3.445Y-2.255
X3.4464Y-2.34
X3.46Y-2.57
X3.46Y-2.66
X3.47Y-1.24
X3.4709Y-2.8109
X3.485Y-1.955
X3.5053Y-2.81
X3.51Y-1.725
X3.5338Y-3.3098
X3.5338Y-4.3098
X3.5338Y-4.6098
X3.5338Y-4.9098
X3.54Y-1.955
X3.545Y-1.695
X3.5473Y-2.81
X3.55Y-2.57
X3.55Y-2.66
X3.5552Y-2.3895
X3.56Y-2.2
X3.565Y-1.24
X3.57Y-1.87
X3.5788Y-2.81
X3.595Y-2.865
X3.605Y-1.845
X3.6338Y-1.2098
X3.6338Y-2.9098
X3.6338Y-3.7098
X3.6338Y-4.0098
X3.6498Y-2.5626
X3.6502Y-2.6275
X3.6506Y-2.6947
X3.6523Y-2.663
X3.6736Y-2.515
X3.7338Y-3.1098
X3.7338Y-4.2098
X3.7338Y-4.7098
X3.76Y-1.52
X3.76Y-2.78
X3.765Y-2.27
X3.78Y-1.95
X3.785Y-1.605
X3.785Y-1.635
X3.785Y-2.3
X3.785Y-2.335
X3.815Y-1.605
X3.815Y-1.635
X3.815Y-2.3
X3.815Y-2.335
X3.82Y-2.42
X3.82Y-2.455
X3.82Y-2.495
X3.8338Y-1.3098
X3.8338Y-2.6098
X3.8338Y-3.3098
X3.8338Y-3.8098
X3.8338Y-4.9098
X3.84Y-2.03
X3.84Y-2.07
X3.865Y-2.125
X3.865Y-2.15
X3.87Y-2.03
X3.87Y-2.07
X3.895Y-2.125
X3.895Y-2.15
X3.9338Y-2.8098
X3.9338Y-4.0098
X3.9338Y-4.3098
X3.9338Y-4.6098
X3.96Y-1.49
X3.96Y-1.85
X3.96Y-2.2
X4.0338Y-1.2098
X4.0338Y-2.5098
X4.0338Y-3.0098
X4.0338Y-3.7098
X4.0338Y-4.8098
X4.05Y-1.39
X4.05Y-1.43
X4.05Y-1.75
X4.05Y-1.79
X4.05Y-2.09
X4.05Y-2.14
X4.1338Y-2.7098
X4.1338Y-3.2098
X4.1338Y-3.9098
X4.1338Y-4.2098
X4.19Y-1.4
X4.19Y-1.76
X4.2Y-2.1
X4.2338Y-1.3098
X4.2338Y-2.4098
X4.2338Y-2.9098
X4.2338Y-4.7098
X4.25Y-1.44
X4.2736Y-1.8
X4.3Y-2.14
X4.3338Y-1.7098
X4.3338Y-2.0098
X4.3338Y-2.6098
X4.3338Y-3.1098
X4.3338Y-3.7098
X4.3338Y-4.0098
X4.3338Y-4.3098
X4.3338Y-4.9098
X4.4338Y-1.4098
X4.4338Y-2.8098
X4.4338Y-3.3098
X4.4338Y-4.5098
X4.5338Y-1.6098
X4.5338Y-2.1098
X4.5338Y-2.4098
X4.5338Y-3.0098
X4.5338Y-3.5098
X4.5338Y-3.8098
X4.5338Y-4.1098
X4.5338Y-4.7098
T2
X0.7707Y-1.2074
X0.7707Y-4.8874
X0.794Y-1.151
X0.794Y-1.2638
X0.794Y-4.831
X0.794Y-4.9438
X0.8504Y-1.1277
X0.8504Y-1.2871
X0.8504Y-4.8077
X0.8504Y-4.9671
X0.9068Y-1.151
X0.9068Y-1.2638
X0.9068Y-4.831
X0.9068Y-4.9438
X0.9301Y-1.2074
X0.9301Y-4.8874
X4.4507Y-1.2074
X4.4507Y-4.8874
X4.474Y-1.151
X4.474Y-1.2638
X4.474Y-4.831
X4.474Y-4.9438
X4.5304Y-1.1277
X4.5304Y-1.2871
X4.5304Y-4.8077
X4.5304Y-4.9671
X4.5868Y-1.151
X4.5868Y-1.2638
X4.5868Y-4.831
X4.5868Y-4.9438
X4.6101Y-1.2074
X4.6101Y-4.8874
T4
X1.6804Y-1.3718
X1.908Y-1.3718
T5
X3.165Y-1.17
X3.265Y-1.17
X3.365Y-1.17
X3.465Y-1.17
X3.565Y-1.17
T6
X4.425Y-1.52
X4.425Y-1.6184
X4.425Y-1.87
X4.425Y-1.9684
X4.425Y-2.22
X4.425Y-2.3184
T7
X0.8504Y-1.2074
X0.8504Y-4.8874
X4.5304Y-1.2074
X4.5304Y-4.8874
T8
X1.1398Y-3.5598
X1.1398Y-4.4653
X4.2894Y-3.5598
X4.2894Y-4.4653
T3
G00X1.6241Y-1.2387
M15
G01X1.6241Y-1.2151
M16
G05
G00X1.6241Y-1.4103
M15
G01X1.6241Y-1.3749
M16
G05
G00X1.9643Y-1.2387
M15
G01X1.9643Y-1.2151
M16
G05
G00X1.9643Y-1.4103
M15
G01X1.9643Y-1.3749
M16
G05
M30
